<?xml version="1.0" encoding="UTF-8"?>
<!-- Generator: Adobe Illustrator 25.2.3, SVG Export Plug-In . SVG Version: 6.00 Build 0)  -->
<svg version="1.1" id="图层_1" xmlns="http://www.w3.org/2000/svg" xmlns:xlink="http://www.w3.org/1999/xlink" x="0px" y="0px" viewBox="0 0 112.7 50" style="enable-background:new 0 0 112.7 50;" xml:space="preserve">
<style type="text/css">
	.st0{fill:#ffffff;}
</style>
<g>
	<g>
		<g>
			<path class="st0" d="M88.7,9.7c0-0.1-0.1-0.2-0.2-0.1L57.1,20.4c-0.2,0-0.2,0.2-0.1,0.4l6.6,7.8c0,0,0.1,0.1,0.2,0.1h16h5.8     L88.7,9.7z"/>
			<path class="st0" d="M91.1,8.9l-3.3,19.8h4.4c0.1,0,0.2-0.1,0.2-0.2l3.6-21c0-0.2-0.1-0.3-0.3-0.2l-4.4,1.5     C91.2,8.7,91.1,8.8,91.1,8.9z"/>
		</g>
		<g>
			<path class="st0" d="M23.8,9.7c0-0.1,0.1-0.2,0.1-0.1l31.5,10.8c0.2,0,0.2,0.2,0.1,0.4l-6.6,7.8c0,0-0.1,0.1-0.2,0.1h-16h-5.8     L23.8,9.7z"/>
			<path class="st0" d="M21.4,8.9l3.3,19.8h-4.4c-0.1,0-0.2-0.1-0.2-0.2l-3.6-21c0-0.2,0.1-0.3,0.3-0.2l4.4,1.5     C21.3,8.7,21.4,8.8,21.4,8.9z"/>
		</g>
	</g>
	<g>
		<path class="st0" d="M32.1,41.5c0,1.2,1,2.2,2.2,2.2h9c0.1,0,0.2-0.1,0.2-0.2v-1.6c0-0.1-0.1-0.2-0.2-0.2h-7.9    c-0.5,0-0.8-0.4-0.8-0.8v-4.4h8.8c0.1,0,0.2-0.1,0.2-0.2v-1.6c0-0.1-0.1-0.2-0.2-0.2h-11c-0.1,0-0.2,0.1-0.2,0.2V41.5z"/>
		<path class="st0" d="M18.9,41.4c0,1.2,1,2.2,2.2,2.2h9.2c0.1,0,0.2-0.1,0.2-0.2v-1.6c0-0.1-0.1-0.2-0.2-0.2h-8.2    c-0.4,0-0.8-0.3-0.8-0.8v-4.5h9c0.1,0,0.2-0.1,0.2-0.2v-1.6c0-0.1-0.1-0.2-0.2-0.2H19.1c-0.1,0-0.2,0.1-0.2,0.2    C18.9,34.6,18.9,41.4,18.9,41.4z"/>
		<path class="st0" d="M23.2,40h7.1c0.1,0,0.2-0.1,0.2-0.2v-1.6c0-0.1-0.1-0.2-0.2-0.2h-7.1c-0.1,0-0.2,0.1-0.2,0.2v1.6    C23,39.9,23.1,40,23.2,40z"/>
		<path class="st0" d="M55,38h-7.5v-3.4c0-0.1-0.1-0.2-0.2-0.2h-2c-0.1,0-0.2,0.1-0.2,0.2v8.8c0,0.1,0.1,0.2,0.2,0.2h2    c0.1,0,0.2-0.1,0.2-0.2V40H55v3.4c0,0.1,0.1,0.2,0.2,0.2h2c0.1,0,0.2-0.1,0.2-0.2v-8.8c0-0.1-0.1-0.2-0.2-0.2h-2    c-0.1,0-0.2,0.1-0.2,0.2V38z"/>
		<path class="st0" d="M93.6,42.2l-4.7-7.6c-0.1-0.1-0.2-0.2-0.4-0.2h-2.2l0,0h-1.2c-0.1,0-0.2,0.1-0.2,0.2v8.8    c0,0.1,0.1,0.2,0.2,0.2h2c0.1,0,0.2-0.1,0.2-0.2v-7.3c0,0,0.1,0,0.1,0l4.6,7.4c0.1,0.1,0.2,0.2,0.4,0.2h1.3l0,0h2.2    c0.1,0,0.2-0.1,0.2-0.2v-8.8c0-0.1-0.1-0.2-0.2-0.2h-2c-0.1,0-0.2,0.1-0.2,0.2L93.6,42.2C93.7,42.2,93.7,42.3,93.6,42.2z"/>
		<path class="st0" d="M106,34.4h-7.9c-0.1,0-0.2,0.1-0.2,0.2v8.8c0,0.1,0.1,0.2,0.2,0.2h7.9c1.9,0,3.5-1.6,3.5-3.5v-2.2    C109.6,36,108,34.4,106,34.4z M107.1,39.6c0,1.1-0.9,2-2,2h-4.8v-5.2h4.8c1.1,0,2,0.9,2,2C107.1,38.4,107.1,39.6,107.1,39.6z"/>
		<path class="st0" d="M81,43.7h2c0.1,0,0.2-0.1,0.2-0.2v-8.8c0-0.1-0.1-0.2-0.2-0.2h-2c-0.1,0-0.2,0.1-0.2,0.2v8.8    C80.8,43.6,80.9,43.7,81,43.7z"/>
		<path class="st0" d="M16.1,34.4h-2.2c-0.1,0-0.3,0.1-0.4,0.2l-3.3,5.3c0,0.1-0.1,0.1-0.2,0l-3.3-5.3c-0.1-0.1-0.2-0.2-0.4-0.2H4.2    l0,0h-1c-0.1,0-0.2,0.1-0.2,0.2v8.8c0,0.1,0.1,0.2,0.2,0.2h2c0.1,0,0.2-0.1,0.2-0.2v-7c0,0,0,0,0.1,0l3.4,5.4C8.9,42,9,42,9.1,42    h2c0.1,0,0.2-0.1,0.3-0.2l3.4-5.4c0,0,0.1,0,0.1,0v7c0,0.1,0.1,0.2,0.2,0.2h2c0.1,0,0.2-0.1,0.2-0.2v-8.8c0-0.1-0.1-0.2-0.2-0.2    H16.1L16.1,34.4z"/>
		<path class="st0" d="M77.8,34.4h-2.2c-0.2,0-0.3,0.1-0.4,0.2L72,39.9c0,0.1-0.1,0.1-0.2,0l-3.3-5.3c-0.1-0.1-0.2-0.2-0.4-0.2H66    l0,0h-1c-0.1,0-0.2,0.1-0.2,0.2v8.8c0,0.1,0.1,0.2,0.2,0.2h2c0.1,0,0.2-0.1,0.2-0.2v-7c0,0,0.1,0,0.1,0l3.4,5.4    c0.1,0.1,0.2,0.2,0.3,0.2h2c0.1,0,0.2-0.1,0.3-0.2l3.4-5.4c0,0,0.1,0,0.1,0v7c0,0.1,0.1,0.2,0.2,0.2h2c0.1,0,0.2-0.1,0.2-0.2v-8.8    c0-0.1-0.1-0.2-0.2-0.2L77.8,34.4L77.8,34.4z"/>
	</g>
</g>
</svg>